<mxfile host="app.diagrams.net" agent="Mozilla/5.0 (Windows NT 10.0; Win64; x64) AppleWebKit/537.36 (KHTML, like Gecko) Chrome/127.0.0.0 Safari/537.36" version="24.7.6">
  <diagram name="Page-1" id="bAqIAQ-4bpXfbEuGqonz">
    <mxGraphModel dx="1949" dy="719" grid="1" gridSize="10" guides="1" tooltips="1" connect="1" arrows="1" fold="1" page="1" pageScale="1" pageWidth="827" pageHeight="1169" math="0" shadow="0">
      <root>
        <mxCell id="0" />
        <mxCell id="1" parent="0" />
        <mxCell id="C9ud0-nxX3Vw6TwEYUsl-2" value="" style="rounded=1;whiteSpace=wrap;html=1;arcSize=4;" vertex="1" parent="1">
          <mxGeometry x="-70" y="320" width="780" height="460" as="geometry" />
        </mxCell>
        <mxCell id="C9ud0-nxX3Vw6TwEYUsl-8" value="Intellichain" style="text;html=1;align=center;verticalAlign=middle;whiteSpace=wrap;rounded=0;fontFamily=Helvetica;fontSize=19;fontColor=default;" vertex="1" parent="1">
          <mxGeometry x="-60" y="340" width="120" height="40" as="geometry" />
        </mxCell>
        <mxCell id="C9ud0-nxX3Vw6TwEYUsl-10" value="" style="rounded=0;whiteSpace=wrap;html=1;strokeColor=default;align=center;verticalAlign=middle;fontFamily=Helvetica;fontSize=12;fontColor=default;fillColor=default;" vertex="1" parent="1">
          <mxGeometry x="-50" y="510" width="740" height="190" as="geometry" />
        </mxCell>
        <mxCell id="C9ud0-nxX3Vw6TwEYUsl-11" value="" style="rounded=1;whiteSpace=wrap;html=1;strokeColor=default;align=center;verticalAlign=middle;fontFamily=Helvetica;fontSize=12;fontColor=default;fillColor=default;" vertex="1" parent="1">
          <mxGeometry x="-40" y="520" width="70" height="80" as="geometry" />
        </mxCell>
        <mxCell id="C9ud0-nxX3Vw6TwEYUsl-12" value="" style="rounded=1;whiteSpace=wrap;html=1;strokeColor=default;align=center;verticalAlign=middle;fontFamily=Helvetica;fontSize=12;fontColor=default;fillColor=default;" vertex="1" parent="1">
          <mxGeometry x="50" y="520" width="70" height="80" as="geometry" />
        </mxCell>
        <mxCell id="C9ud0-nxX3Vw6TwEYUsl-13" value="" style="rounded=1;whiteSpace=wrap;html=1;strokeColor=default;align=center;verticalAlign=middle;fontFamily=Helvetica;fontSize=12;fontColor=default;fillColor=default;" vertex="1" parent="1">
          <mxGeometry x="140" y="520" width="70" height="80" as="geometry" />
        </mxCell>
        <mxCell id="C9ud0-nxX3Vw6TwEYUsl-14" value="" style="rounded=1;whiteSpace=wrap;html=1;strokeColor=default;align=center;verticalAlign=middle;fontFamily=Helvetica;fontSize=12;fontColor=default;fillColor=default;" vertex="1" parent="1">
          <mxGeometry x="230" y="520" width="70" height="80" as="geometry" />
        </mxCell>
        <mxCell id="C9ud0-nxX3Vw6TwEYUsl-15" value="" style="rounded=1;whiteSpace=wrap;html=1;strokeColor=default;align=center;verticalAlign=middle;fontFamily=Helvetica;fontSize=12;fontColor=default;fillColor=default;" vertex="1" parent="1">
          <mxGeometry x="-40" y="610" width="70" height="80" as="geometry" />
        </mxCell>
        <mxCell id="C9ud0-nxX3Vw6TwEYUsl-16" value="" style="rounded=1;whiteSpace=wrap;html=1;strokeColor=default;align=center;verticalAlign=middle;fontFamily=Helvetica;fontSize=12;fontColor=default;fillColor=default;" vertex="1" parent="1">
          <mxGeometry x="50" y="610" width="70" height="80" as="geometry" />
        </mxCell>
        <mxCell id="C9ud0-nxX3Vw6TwEYUsl-17" value="" style="rounded=1;whiteSpace=wrap;html=1;strokeColor=default;align=center;verticalAlign=middle;fontFamily=Helvetica;fontSize=12;fontColor=default;fillColor=default;" vertex="1" parent="1">
          <mxGeometry x="140" y="610" width="70" height="80" as="geometry" />
        </mxCell>
        <mxCell id="C9ud0-nxX3Vw6TwEYUsl-18" value="" style="rounded=1;whiteSpace=wrap;html=1;strokeColor=default;align=center;verticalAlign=middle;fontFamily=Helvetica;fontSize=12;fontColor=default;fillColor=default;" vertex="1" parent="1">
          <mxGeometry x="230" y="610" width="70" height="80" as="geometry" />
        </mxCell>
        <mxCell id="C9ud0-nxX3Vw6TwEYUsl-19" value="" style="rounded=1;whiteSpace=wrap;html=1;strokeColor=default;align=center;verticalAlign=middle;fontFamily=Helvetica;fontSize=12;fontColor=default;fillColor=default;" vertex="1" parent="1">
          <mxGeometry x="320" y="520" width="70" height="80" as="geometry" />
        </mxCell>
        <mxCell id="C9ud0-nxX3Vw6TwEYUsl-20" value="" style="rounded=1;whiteSpace=wrap;html=1;strokeColor=default;align=center;verticalAlign=middle;fontFamily=Helvetica;fontSize=12;fontColor=default;fillColor=default;" vertex="1" parent="1">
          <mxGeometry x="410" y="520" width="70" height="80" as="geometry" />
        </mxCell>
        <mxCell id="C9ud0-nxX3Vw6TwEYUsl-21" value="" style="rounded=1;whiteSpace=wrap;html=1;strokeColor=default;align=center;verticalAlign=middle;fontFamily=Helvetica;fontSize=12;fontColor=default;fillColor=default;" vertex="1" parent="1">
          <mxGeometry x="500" y="520" width="70" height="80" as="geometry" />
        </mxCell>
        <mxCell id="C9ud0-nxX3Vw6TwEYUsl-22" value="" style="rounded=1;whiteSpace=wrap;html=1;strokeColor=default;align=center;verticalAlign=middle;fontFamily=Helvetica;fontSize=12;fontColor=default;fillColor=default;" vertex="1" parent="1">
          <mxGeometry x="590" y="520" width="70" height="80" as="geometry" />
        </mxCell>
        <mxCell id="C9ud0-nxX3Vw6TwEYUsl-28" value="" style="group" vertex="1" connectable="0" parent="1">
          <mxGeometry x="-70" y="720" width="780" height="60" as="geometry" />
        </mxCell>
        <mxCell id="C9ud0-nxX3Vw6TwEYUsl-5" value="Home" style="rounded=1;whiteSpace=wrap;html=1;align=center;verticalAlign=middle;fontFamily=Helvetica;fontSize=12;fillColor=#666666;" vertex="1" parent="C9ud0-nxX3Vw6TwEYUsl-28">
          <mxGeometry width="250" height="60" as="geometry" />
        </mxCell>
        <mxCell id="C9ud0-nxX3Vw6TwEYUsl-6" value="Explore" style="rounded=1;whiteSpace=wrap;html=1;strokeColor=default;align=center;verticalAlign=middle;fontFamily=Helvetica;fontSize=12;fontColor=default;fillColor=default;" vertex="1" parent="C9ud0-nxX3Vw6TwEYUsl-28">
          <mxGeometry x="250" width="280" height="60" as="geometry" />
        </mxCell>
        <mxCell id="C9ud0-nxX3Vw6TwEYUsl-7" value="Settings" style="rounded=1;whiteSpace=wrap;html=1;strokeColor=default;align=center;verticalAlign=middle;fontFamily=Helvetica;fontSize=12;fontColor=default;fillColor=default;" vertex="1" parent="C9ud0-nxX3Vw6TwEYUsl-28">
          <mxGeometry x="530" width="250" height="60" as="geometry" />
        </mxCell>
        <mxCell id="C9ud0-nxX3Vw6TwEYUsl-31" value="" style="group" vertex="1" connectable="0" parent="1">
          <mxGeometry x="-50" y="470" width="160" height="30" as="geometry" />
        </mxCell>
        <mxCell id="C9ud0-nxX3Vw6TwEYUsl-29" value="Intellectual Properties:&amp;nbsp;" style="text;html=1;align=center;verticalAlign=middle;whiteSpace=wrap;rounded=0;fontFamily=Helvetica;fontSize=12;fontColor=default;" vertex="1" parent="C9ud0-nxX3Vw6TwEYUsl-31">
          <mxGeometry width="140" height="30" as="geometry" />
        </mxCell>
        <mxCell id="C9ud0-nxX3Vw6TwEYUsl-30" value="1" style="ellipse;whiteSpace=wrap;html=1;aspect=fixed;rounded=1;strokeColor=default;align=center;verticalAlign=middle;fontFamily=Helvetica;fontSize=12;fontColor=default;fillColor=default;" vertex="1" parent="C9ud0-nxX3Vw6TwEYUsl-31">
          <mxGeometry x="140" y="5" width="20" height="20" as="geometry" />
        </mxCell>
        <mxCell id="C9ud0-nxX3Vw6TwEYUsl-33" value="Pending:" style="text;html=1;align=center;verticalAlign=middle;whiteSpace=wrap;rounded=0;fontFamily=Helvetica;fontSize=12;fontColor=default;" vertex="1" parent="1">
          <mxGeometry x="150" y="470" width="60" height="30" as="geometry" />
        </mxCell>
        <mxCell id="C9ud0-nxX3Vw6TwEYUsl-34" value="4" style="ellipse;whiteSpace=wrap;html=1;aspect=fixed;rounded=1;strokeColor=default;align=center;verticalAlign=middle;fontFamily=Helvetica;fontSize=12;fontColor=default;fillColor=default;" vertex="1" parent="1">
          <mxGeometry x="210" y="475" width="20" height="20" as="geometry" />
        </mxCell>
        <mxCell id="C9ud0-nxX3Vw6TwEYUsl-39" value="" style="shape=mxgraph.sap.icon;labelPosition=center;verticalLabelPosition=bottom;align=center;verticalAlign=top;strokeWidth=1;strokeColor=#D5DADD;fillColor=#EDEFF0;gradientColor=#FCFCFC;gradientDirection=west;aspect=fixed;SAPIcon=SAP_Alert_Notification_service_for_SAP_BTP;rounded=1;fontFamily=Helvetica;fontSize=12;fontColor=default;" vertex="1" parent="1">
          <mxGeometry x="607.5" y="342.5" width="35" height="35" as="geometry" />
        </mxCell>
        <mxCell id="C9ud0-nxX3Vw6TwEYUsl-42" style="edgeStyle=orthogonalEdgeStyle;rounded=0;orthogonalLoop=1;jettySize=auto;html=1;exitX=0.5;exitY=1;exitDx=0;exitDy=0;fontFamily=Helvetica;fontSize=12;fontColor=default;" edge="1" parent="1">
          <mxGeometry relative="1" as="geometry">
            <mxPoint x="150" y="375" as="sourcePoint" />
            <mxPoint x="150" y="375" as="targetPoint" />
          </mxGeometry>
        </mxCell>
        <mxCell id="C9ud0-nxX3Vw6TwEYUsl-44" value="&lt;span style=&quot;color: rgb(0, 0, 0);&quot;&gt;91MqaRCSeu...Pqyax&lt;/span&gt;" style="rounded=1;fillColor=#F1F2F4;strokeColor=none;html=1;whiteSpace=wrap;fontColor=#596780;align=left;fontSize=12;spacingLeft=10;sketch=0;verticalAlign=middle;fontFamily=Helvetica;" vertex="1" parent="1">
          <mxGeometry x="60" y="343.5" width="160" height="33" as="geometry" />
        </mxCell>
        <mxCell id="C9ud0-nxX3Vw6TwEYUsl-45" value="" style="shape=triangle;direction=south;fillColor=#596780;strokeColor=none;html=1;sketch=0;rounded=1;align=center;verticalAlign=middle;fontFamily=Helvetica;fontSize=12;fontColor=default;" vertex="1" parent="C9ud0-nxX3Vw6TwEYUsl-44">
          <mxGeometry x="1" y="0.5" width="12" height="6" relative="1" as="geometry">
            <mxPoint x="-20" y="-3" as="offset" />
          </mxGeometry>
        </mxCell>
        <mxCell id="C9ud0-nxX3Vw6TwEYUsl-47" value="Upload" style="rounded=1;fillColor=#0057D8;strokeColor=none;html=1;whiteSpace=wrap;fontColor=#ffffff;align=center;verticalAlign=middle;fontStyle=0;fontSize=12;sketch=0;fontFamily=Helvetica;" vertex="1" parent="1">
          <mxGeometry x="-50" y="410" width="143" height="33" as="geometry" />
        </mxCell>
        <mxCell id="C9ud0-nxX3Vw6TwEYUsl-49" value="" style="group" vertex="1" connectable="0" parent="1">
          <mxGeometry x="660" y="340" width="40" height="40" as="geometry" />
        </mxCell>
        <mxCell id="C9ud0-nxX3Vw6TwEYUsl-38" value="" style="ellipse;whiteSpace=wrap;html=1;aspect=fixed;rounded=1;strokeColor=default;align=center;verticalAlign=middle;fontFamily=Helvetica;fontSize=12;fontColor=default;fillColor=default;" vertex="1" parent="C9ud0-nxX3Vw6TwEYUsl-49">
          <mxGeometry width="40" height="40" as="geometry" />
        </mxCell>
        <mxCell id="C9ud0-nxX3Vw6TwEYUsl-40" value="" style="sketch=0;outlineConnect=0;fontColor=#232F3E;gradientColor=none;fillColor=#232F3D;strokeColor=none;dashed=0;verticalLabelPosition=bottom;verticalAlign=top;align=center;html=1;fontSize=12;fontStyle=0;aspect=fixed;pointerEvents=1;shape=mxgraph.aws4.user;rounded=1;fontFamily=Helvetica;" vertex="1" parent="C9ud0-nxX3Vw6TwEYUsl-49">
          <mxGeometry x="7.5" y="7.5" width="25" height="25" as="geometry" />
        </mxCell>
      </root>
    </mxGraphModel>
  </diagram>
</mxfile>
